<svg width="51" height="51" viewBox="0 0 51 51" fill="none" xmlns="http://www.w3.org/2000/svg">
<path d="M21.896 19.328V30H19.464V22.544L16.504 22.752V21.12C17.528 21.056 18.296 20.8907 18.808 20.624C19.32 20.3573 19.6933 19.9253 19.928 19.328H21.896ZM26.0555 24.32C25.1595 23.7227 24.7115 22.9547 24.7115 22.016C24.7115 21.0987 25.0262 20.3893 25.6555 19.888C26.2955 19.376 27.1968 19.12 28.3595 19.12C29.5755 19.12 30.5142 19.4027 31.1755 19.968C31.7195 20.4373 31.9915 21.12 31.9915 22.016C31.9915 22.528 31.8902 22.96 31.6875 23.312C31.4848 23.6533 31.1382 23.9893 30.6475 24.32C31.1595 24.5333 31.5382 24.8053 31.7835 25.136C32.1355 25.616 32.3115 26.208 32.3115 26.912C32.3115 27.9253 31.9862 28.7307 31.3355 29.328C30.6955 29.9147 29.6982 30.208 28.3435 30.208C26.9995 30.208 26.0022 29.9147 25.3515 29.328C24.7115 28.7307 24.3915 27.9253 24.3915 26.912C24.3915 26.208 24.5675 25.616 24.9195 25.136C25.1648 24.8053 25.5435 24.5333 26.0555 24.32ZM28.3595 20.928C27.9435 20.928 27.6128 21.0453 27.3675 21.28C27.1328 21.504 27.0155 21.8187 27.0155 22.224C27.0155 22.6293 27.1328 22.9547 27.3675 23.2C27.6128 23.4453 27.9328 23.568 28.3275 23.568C28.7435 23.568 29.0742 23.4507 29.3195 23.216C29.5648 22.9707 29.6875 22.64 29.6875 22.224C29.6875 21.8293 29.5648 21.5147 29.3195 21.28C29.0848 21.0453 28.7648 20.928 28.3595 20.928ZM28.3755 25.232C27.2982 25.232 26.7595 25.7493 26.7595 26.784C26.7595 27.264 26.9035 27.6533 27.1915 27.952C27.4902 28.24 27.8795 28.384 28.3595 28.384C28.8288 28.384 29.2075 28.24 29.4955 27.952C29.7942 27.6533 29.9435 27.264 29.9435 26.784C29.9435 26.304 29.7995 25.9253 29.5115 25.648C29.2342 25.3707 28.8555 25.232 28.3755 25.232Z" fill="#EB5757"/>
<rect x="36.1504" y="8" width="2.7" height="9" fill="#EB5757"/>
<rect x="33" y="13.8501" width="2.7" height="9" transform="rotate(-90 33 13.8501)" fill="#EB5757"/>
<path d="M31.6264 8.56859C27.7887 7.07175 23.5507 6.9519 19.6346 8.22944C15.7184 9.50698 12.3663 12.1029 10.1496 15.5748C7.9328 19.0468 6.98846 23.1799 7.47744 27.2701C7.96643 31.3602 9.8585 35.1543 12.8313 38.0058C15.804 40.8574 19.6735 42.5899 23.7805 42.9083C27.8875 43.2266 31.9777 42.1111 35.3544 39.7518C38.7311 37.3924 41.1853 33.9353 42.2987 29.9693C43.4122 26.0034 43.1161 21.7741 41.4609 18.002L38.3905 19.3493C39.7341 22.411 39.9744 25.8439 39.0706 29.063C38.1668 32.2821 36.1748 35.0882 33.434 37.0033C30.6932 38.9183 27.3732 39.8237 24.0396 39.5653C20.7061 39.3069 17.5652 37.9007 15.1523 35.5861C12.7393 33.2716 11.2036 30.192 10.8067 26.8721C10.4098 23.5521 11.1763 20.1973 12.9756 17.3792C14.7749 14.5611 17.4957 12.454 20.6744 11.417C23.8531 10.3801 27.293 10.4774 30.408 11.6923L31.6264 8.56859Z" fill="#EB5757"/>
</svg>
