<svg width="107" height="38" viewBox="0 0 107 38" fill="none" xmlns="http://www.w3.org/2000/svg">
<g clip-path="url(#clip0_47_518)">
<path d="M99.6373 3.92661C99.6373 4.83783 99.9993 5.71173 100.644 6.35607C101.288 7.0004 102.162 7.36239 103.073 7.36239C103.984 7.36239 104.858 7.0004 105.503 6.35607C106.147 5.71173 106.509 4.83783 106.509 3.92661C106.509 3.01538 106.147 2.14148 105.503 1.49714C104.858 0.852809 103.984 0.490826 103.073 0.490826C102.162 0.490826 101.288 0.852809 100.644 1.49714C99.9993 2.14148 99.6373 3.01538 99.6373 3.92661ZM107 3.92661C107 4.96801 106.586 5.96675 105.85 6.70313C105.113 7.43952 104.114 7.85321 103.073 7.85321C102.032 7.85321 101.033 7.43952 100.297 6.70313C99.5602 5.96675 99.1465 4.96801 99.1465 3.92661C99.1465 2.8852 99.5602 1.88646 100.297 1.15008C101.033 0.413695 102.032 0 103.073 0C104.114 0 105.113 0.413695 105.85 1.15008C106.586 1.88646 107 2.8852 107 3.92661ZM101.846 1.96428H103.372C104.212 1.96428 104.718 2.44186 104.718 3.17172C104.718 3.73028 104.39 4.12392 103.984 4.27116L104.791 5.88991H104.045L103.328 4.38013H102.502V5.88991H101.846V1.96428ZM102.501 2.49928V3.86231H103.262C103.75 3.86231 104.034 3.63505 104.034 3.19478C104.034 2.74666 103.741 2.49928 103.279 2.49928H102.501Z" fill="#237F8A"/>
</g>
<path d="M0.981651 6.92697V4.25688H9.18826C12.7811 4.25688 13.429 6.25945 13.429 7.75156C13.429 9.34183 12.5062 10.1664 11.1712 10.618V10.6376C12.2314 10.8536 14.0965 11.6389 14.0965 14.1519C14.0965 17.4503 11.2694 18 8.83486 18H0.981651V15.3299H2.29706V6.92697H0.981651ZM5.53651 12.2083V15.3299H8.89376C9.46312 15.3299 10.6804 15.0354 10.6804 13.7789C10.6804 12.4635 9.65945 12.2083 8.48147 12.2083H5.53651ZM5.53651 6.92697V9.6756H8.52073C9.83615 9.6756 10.1306 8.79211 10.1306 8.26202C10.1306 7.69266 9.81651 6.92697 8.3833 6.92697H5.53651ZM23.0848 15.1139H26.1082C25.3229 17.9411 22.751 18.373 20.9251 18.373C19.6097 18.373 15.5653 18.0982 15.5653 12.9936C15.5653 9.4989 17.8427 7.65339 21.1018 7.65339C24.1842 7.65339 25.5193 9.44 25.9904 11.1677C26.2849 12.169 26.2653 13.131 26.2653 13.7396H18.6673C18.6673 14.7017 19.1385 16.3705 21.0626 16.3705C21.9264 16.3705 22.8295 15.9974 23.0848 15.1139ZM18.6673 12.0708H23.2222C23.1633 9.93083 21.8479 9.65596 21.1215 9.65596C19.3545 9.65596 18.7262 11.0499 18.6673 12.0708ZM34.8295 12.385V10.8339H41.8384V12.385H40.366V18H38.9328V15.7815H38.8935C38.1082 17.4306 36.5179 18.4123 34.319 18.4123C31.0403 18.4123 27.8597 16.5079 27.8597 10.991C27.8597 6.33798 30.412 3.84459 34.4957 3.84459C36.2234 3.84459 37.6762 4.39431 38.599 5.67046V4.25688H40.0322V8.37982H38.4812C38.383 7.14293 37.3817 5.3956 34.535 5.3956C30.1961 5.3956 29.823 9.57743 29.823 11.0499C29.823 12.0512 30.1175 16.8613 34.5153 16.8613C37.8922 16.8613 38.6775 14.0734 38.6775 12.385H34.8295ZM50.0865 18V16.5864C49.3993 17.8429 48.025 18.3927 46.6703 18.3927C44.5696 18.3927 43.156 17.4895 43.156 15.3888C43.156 13.6611 44.0395 12.6009 48.0446 12.2279C49.5171 12.1297 49.9883 12.1494 49.9883 10.8536C49.9883 10.3824 49.949 8.85101 47.7501 8.85101C47.1219 8.85101 45.0997 8.89027 45.1586 10.9714H43.5094C43.5094 9.63633 44.2162 7.63376 47.7501 7.63376C49.36 7.63376 51.7749 8.08532 51.716 10.991V16.7828H52.9725V18H50.0865ZM49.9883 13.6022V12.8954C49.4778 13.2881 48.8888 13.2292 47.7894 13.3862C46.258 13.6415 44.9426 13.7004 44.9426 15.3299C44.9426 16.5079 45.7476 17.1754 46.8666 17.1754C48.2213 17.1754 49.9883 16.2723 49.9883 13.6022ZM60.7342 18V16.7828H61.971V11.6978C61.971 10.245 61.6176 8.85101 60.047 8.85101C58.6138 8.85101 57.4162 10.0879 57.4162 12.0512V16.7828H58.6531V18H54.3927V16.7828H55.6885V9.24367H54.3927V8.02642H57.4162V9.45963C57.9463 8.28165 59.242 7.63376 60.4789 7.63376C62.2066 7.63376 63.0705 8.73321 63.3257 9.77376C63.6791 9.00807 64.7197 7.63376 66.7811 7.63376C69.8439 7.63376 69.9813 10.4609 69.9813 11.5604V16.7828H71.2771V18H67.0167V16.7828H68.2536V11.6782C68.2536 10.6376 68.1162 8.85101 66.3296 8.85101C65.1516 8.85101 63.6987 9.47927 63.6987 12.0512V16.7828H64.9356V18H60.7342ZM72.8562 5.47413V4.25688H75.8797V9.3222C76.4294 8.14422 77.7252 7.63376 79.1584 7.63376C83.4776 7.63376 83.6936 11.7763 83.6936 12.9936C83.6936 17.3325 80.9646 18.3927 79.1191 18.3927C77.4699 18.3927 76.449 17.5484 75.8208 16.6257H75.7619V18H72.8562V16.7828H74.152V5.47413H72.8562ZM75.7619 12.9543C75.7619 16.0956 77.254 17.1754 78.7461 17.1754C80.3953 17.1754 81.8677 16.0956 81.8677 12.9936C81.8677 10.0094 80.4738 8.85101 78.8442 8.85101C77.1754 8.85101 75.7619 10.0486 75.7619 12.9543ZM85.146 5.47413V4.25688H88.1695V16.7828H89.4653V18H85.146V16.7828H86.4418V5.47413H85.146ZM98.846 15.1139H100.495C100.24 16.5275 99.1994 18.3927 96.1367 18.3927C91.1891 18.3927 91.091 13.9556 91.091 13.0525C91.091 11.6782 91.3462 7.63376 95.96 7.63376C99.9455 7.63376 100.476 10.7554 100.574 12.915C100.574 13.0721 100.593 13.2488 100.593 13.4059H92.9168C92.9168 15.1139 93.8003 17.1754 96.0778 17.1754C97.7466 17.1754 98.63 16.2134 98.846 15.1139ZM92.9168 12.1886H98.7675C98.7086 10.8536 98.257 8.85101 95.9992 8.85101C93.4273 8.85101 92.9168 10.9321 92.9168 12.1886ZM8.64635 23.2398V21.2569H13.0638L17.4616 32.9189H18.8359V35H13.5546V33.1152H14.8308L14.4185 31.9176H9.03902L8.62672 33.1152H9.7458V35H4.58232V32.9189H6.15296L9.82434 23.2398H8.64635ZM11.7091 23.7306L9.62801 29.8954H13.7509L11.7091 23.7306ZM29.9543 26.6363V25.0264H34.8233V26.6363H33.5668L30.6611 35H28.2659L26.4989 27.7161L24.7123 35H22.3171L19.3918 26.6363H18.1352V25.0264H23.0042V26.6363H21.8066L23.6325 32.3299L25.3995 25.0264H27.5984L29.3457 32.3299L31.1716 26.6363H29.9543ZM42.2461 35V33.7631C41.3823 34.8626 40.2632 35.2356 38.9282 35.2356C35.4727 35.2356 35.2568 33.1938 35.2568 32.3495C35.2568 30.2881 37.1023 29.6598 37.5538 29.5617C38.3195 29.3457 39.0263 29.3261 39.8705 29.1886L40.8326 29.0512C41.6571 28.953 42.0105 28.953 42.0105 27.9714C42.0105 26.4007 40.8326 26.2437 40.0669 26.2437C38.3392 26.2437 37.6913 27.1664 37.7502 28.1088H35.512C35.4531 26.2829 36.8078 24.6338 40.0669 24.6338C44.0916 24.6338 44.3665 26.9897 44.3665 28.1677V33.3901H45.623V35H42.2461ZM42.0105 30.5629V30.2095C41.7553 30.3862 41.4412 30.4844 40.3221 30.6218C38.7122 30.8378 37.6913 30.9752 37.6913 32.271C37.6913 33.0367 38.1428 33.6257 39.2423 33.6257C40.4203 33.6257 42.0105 33.1545 42.0105 30.5629ZM46.8002 26.6363V25.0264H50.4127V26.8523H50.452C51.1391 25.1835 52.7687 24.8301 53.8681 24.8301H54.2608V26.3615C51.1391 26.3026 50.5305 28.0695 50.4323 29.5224C50.4127 29.8561 50.4127 30.1703 50.4127 30.5433V33.3901H51.6692V35H46.8002V33.3901H48.0567V26.6363H46.8002ZM62.7393 32.1139H64.9775C64.7223 33.4097 63.7995 35.3927 60.2263 35.3927C59.225 35.3927 55.161 35.216 55.161 30.1899C55.161 26.813 56.8102 24.6338 60.2459 24.6338C64.5456 24.6338 65.0364 28.0892 65.1149 30.0525C65.1149 30.2684 65.1346 30.4059 65.1346 30.6218H57.674C57.674 31.898 58.3023 33.7828 60.4226 33.7828C61.4828 33.7828 62.5823 33.2134 62.7393 32.1139ZM57.674 29.0119H62.6412C62.6412 28.1088 62.3074 26.2437 60.2656 26.2437C58.4397 26.2437 57.6151 27.7161 57.674 29.0119ZM68.055 35V31.898H71.2944V35H68.055ZM73.9656 31.5092C73.9656 29.6539 74.8589 27.7436 77.4013 27.7436C79.9438 27.7436 80.8371 29.6539 80.8371 31.5092C80.8371 33.3646 79.9438 35.2749 77.4013 35.2749C74.8589 35.2749 73.9656 33.3646 73.9656 31.5092ZM75.2437 31.4955C75.2437 34.2991 76.8654 34.4228 77.4013 34.4228C77.9373 34.4228 79.559 34.2991 79.559 31.4955C79.559 28.6919 77.9373 28.5682 77.4013 28.5682C76.8654 28.5682 75.2437 28.6919 75.2437 31.4955ZM81.9769 28.8706V28.0185H84.0934V29.3653H84.1209C84.4507 28.3346 85.4539 27.7986 86.4297 27.7574L86.787 27.7436V28.5957C85.1653 28.6644 84.2171 29.2829 84.1071 31.042C84.0934 31.1657 84.0934 31.2894 84.0934 31.413V34.1479H85.0004V35H81.9769V34.1479H82.884V28.8706H81.9769ZM87.9078 35.7834H89.0623C89.2822 36.5942 90.1617 36.7866 90.9038 36.7866C92.8004 36.7866 92.8279 34.9863 92.8279 34.6152V33.8593C92.182 34.9038 91.6047 35.2749 90.574 35.2749C88.9248 35.2749 87.4268 34.1479 87.4268 31.4543C87.4268 30.8083 87.4268 27.7436 90.4503 27.7436C91.6185 27.7436 92.4156 28.1559 92.8691 28.9805H92.9103V28.0185H94.9031V28.8706H94.0373V34.8213C94.0373 37.5012 91.5773 37.6524 90.9038 37.6524C90.2304 37.6524 88.3476 37.6799 87.9078 35.7834ZM90.8489 34.4228C91.2887 34.4228 92.9103 34.1204 92.9103 31.4268C92.9103 29.6539 92.1682 28.5957 90.7389 28.5957C88.7049 28.5957 88.7049 30.8496 88.7049 31.413C88.7049 34.2304 90.2854 34.4228 90.8489 34.4228Z" fill="#237F8A"/>
<defs>
<clipPath id="clip0_47_518">
<rect width="7.85321" height="7.85321" fill="white" transform="translate(99.1465)"/>
</clipPath>
</defs>
</svg>
