<svg width="106" height="41" viewBox="0 0 106 41" fill="none" xmlns="http://www.w3.org/2000/svg">
<path d="M9.05 15.275C7.85 16.35 7.175 16.625 5.8 16.625C2.425 16.625 0.3 14.35 0.3 10.725C0.3 7.125 2.475 4.625 5.675 4.625C7.225 4.625 7.85 5 9.4 6.475V4.9H13.5V16.55C13.5 17.775 13.1 18.95 12.425 19.725C11.5 20.725 9.45 21.325 6.925 21.325C4.325 21.325 2.425 20.725 1.625 19.7C1.15 19.125 0.975 18.55 0.9 17.45H5.7C5.875 18.425 6.25 18.675 7.25 18.675C8.525 18.675 9.05 18.1 9.05 16.7V15.275ZM7.05 8C5.775 8 5.075 8.95 5.075 10.65C5.075 12.375 5.8 13.325 7.025 13.325C8.35 13.325 9 12.475 9 10.75C9 8.95 8.325 8 7.05 8ZM22.8119 15.8C22.1369 16.325 21.9869 16.475 21.6619 16.675C20.9869 17.15 20.0869 17.375 19.0119 17.375C16.0119 17.375 14.5119 16.15 14.5119 13.675C14.5119 12.35 14.9119 11.375 15.7369 10.75C16.1619 10.45 16.6369 10.2 17.2119 10.075C18.1119 9.85 19.1869 9.725 20.4119 9.55C21.3869 9.45 22.2869 9.2 22.5619 8.925C22.6869 8.8 22.7369 8.65 22.7369 8.475C22.7369 7.7 22.2119 7.3 21.1369 7.3C19.9619 7.3 19.5619 7.6 19.3869 8.7H15.0369C15.1119 7.625 15.3369 6.9 15.9619 6.2C16.9619 5.125 19.1369 4.375 21.5619 4.375C24.0869 4.375 25.9619 5.125 26.7369 6.525C27.0619 7.125 27.2619 7.875 27.2619 8.675V15.225C27.2619 16.1 27.3369 16.425 27.8119 17H23.0369L22.8119 15.8ZM22.6369 11.425C21.7619 11.6 21.3869 11.675 20.8619 11.75C19.5869 11.975 19.1619 12.325 19.1619 13.125C19.1619 13.825 19.7619 14.4 20.4869 14.4C21.2619 14.4 22.0119 14 22.3869 13.425C22.5619 13.1 22.6369 12.7 22.6369 12.25V11.425ZM28.6385 4.9H32.9885V6.35C34.0885 4.95 35.0885 4.475 36.8635 4.475C38.1885 4.475 39.4135 4.85 40.1885 5.475C40.3885 5.675 40.5635 5.85 41.0385 6.475C41.7885 5.725 41.5385 5.975 41.7385 5.775C42.6135 4.9 43.7385 4.45 45.1135 4.45C46.7885 4.45 48.4385 5.25 49.0635 6.425C49.4385 7.05 49.6135 8.075 49.6135 9.175V17H44.8385V10.35C44.8385 8.925 44.3385 8.325 43.1135 8.325C42.0885 8.325 41.5135 9.1 41.5135 10.5V17H36.7385V10.4C36.7385 9 36.1885 8.3 35.0885 8.3C33.9385 8.3 33.3635 9.1 33.3635 10.7V17H28.6385V4.9ZM50.9344 0.324999H55.6594V5.875C56.8594 4.725 57.6344 4.4 59.0094 4.4C62.2094 4.4 64.3094 6.95 64.3094 10.95C64.3094 14.85 62.2094 17.35 58.9844 17.35C57.4594 17.35 56.6094 16.975 55.2844 15.65V17H50.9344V0.324999ZM57.6094 8.1C56.3344 8.1 55.6094 9.125 55.6094 10.925C55.6094 12.725 56.3844 13.8 57.6094 13.8C58.8844 13.8 59.5344 12.825 59.5344 10.95C59.5344 9.125 58.8344 8.1 57.6094 8.1ZM65.491 0.324999H70.216V17H65.491V0.324999ZM71.6492 4.9H76.3742V17H71.6492V4.9ZM71.6492 0.324999H76.3742V3.55H71.6492V0.324999ZM77.8074 4.9H82.1574V6.35C83.0574 5.05 84.1824 4.5 86.0074 4.5C89.2074 4.5 90.8824 6.175 90.8824 9.475V17H86.1074V10.6C86.1074 9.125 85.5574 8.375 84.4324 8.375C83.3074 8.375 82.5324 9.275 82.5324 10.6V17H77.8074V4.9ZM100.741 15.275C99.5414 16.35 98.8664 16.625 97.4914 16.625C94.1164 16.625 91.9914 14.35 91.9914 10.725C91.9914 7.125 94.1664 4.625 97.3664 4.625C98.9164 4.625 99.5414 5 101.091 6.475V4.9H105.191V16.55C105.191 17.775 104.791 18.95 104.116 19.725C103.191 20.725 101.141 21.325 98.6164 21.325C96.0164 21.325 94.1164 20.725 93.3164 19.7C92.8414 19.125 92.6664 18.55 92.5914 17.45H97.3914C97.5664 18.425 97.9414 18.675 98.9414 18.675C100.216 18.675 100.741 18.1 100.741 16.7V15.275ZM98.7414 8C97.4664 8 96.7664 8.95 96.7664 10.65C96.7664 12.375 97.4914 13.325 98.7164 13.325C100.041 13.325 100.691 12.475 100.691 10.75C100.691 8.95 100.016 8 98.7414 8ZM16.1641 23.9H17.9891V20.15H22.7641V23.9H25.3141V26.75H22.8141V30.625C22.8141 31.8 22.8141 31.85 22.9391 32.1C23.1391 32.525 23.6391 32.725 24.7141 32.725C24.8891 32.725 25.0891 32.725 25.3641 32.7V36L24.2391 36.125C23.4641 36.2 22.6641 36.25 22.0641 36.25C19.2391 36.25 17.9891 35.275 17.9891 32.875V26.75H16.1641V23.9ZM26.2879 19.325H31.0129V25.3C32.0129 24.025 33.0129 23.525 34.7129 23.525C36.5129 23.525 38.0379 24.325 38.7129 25.55C39.1379 26.275 39.3629 27.375 39.3629 28.475V36H34.5879V29.575C34.5879 28.05 33.9879 27.3 32.8129 27.3C31.6879 27.3 31.0129 28.175 31.0129 29.575V36H26.2879V19.325ZM53.9469 32.4C52.8719 35.275 50.8969 36.425 47.1969 36.425C45.0969 36.425 43.2219 35.775 42.1469 34.65C41.0719 33.55 40.4719 31.875 40.4719 30C40.4719 26 43.1219 23.425 47.1969 23.425C49.8719 23.425 52.1719 24.6 53.2469 26.575C53.8469 27.65 54.1719 29.05 54.1719 30.55V31H45.1469C45.2719 32.725 45.9719 33.475 47.5719 33.475C48.1969 33.475 48.6719 33.3 49.0219 32.925C49.1469 32.825 49.1969 32.775 49.4969 32.4H53.9469ZM49.5969 28.575C49.4719 27.05 48.7219 26.275 47.3719 26.275C46.0719 26.275 45.2219 27.1 45.0969 28.575H49.5969ZM55.3035 23.9H59.6535V25.925C60.6285 24.25 61.4535 23.65 62.8285 23.65C63.0535 23.65 63.4035 23.65 63.7785 23.725L63.9035 23.75L64.0785 23.775L64.2035 23.8V28.375C63.6035 28.3 63.3285 28.275 63.0535 28.275C61.0285 28.275 60.0285 29.25 60.0285 31.2V36H55.3035V23.9ZM72.5844 34.8C71.9094 35.325 71.7594 35.475 71.4344 35.675C70.7594 36.15 69.8594 36.375 68.7844 36.375C65.7844 36.375 64.2844 35.15 64.2844 32.675C64.2844 31.35 64.6844 30.375 65.5094 29.75C65.9344 29.45 66.4094 29.2 66.9844 29.075C67.8844 28.85 68.9594 28.725 70.1844 28.55C71.1594 28.45 72.0594 28.2 72.3344 27.925C72.4594 27.8 72.5094 27.65 72.5094 27.475C72.5094 26.7 71.9844 26.3 70.9094 26.3C69.7344 26.3 69.3344 26.6 69.1594 27.7H64.8094C64.8844 26.625 65.1094 25.9 65.7344 25.2C66.7344 24.125 68.9094 23.375 71.3344 23.375C73.8594 23.375 75.7344 24.125 76.5094 25.525C76.8344 26.125 77.0344 26.875 77.0344 27.675V34.225C77.0344 35.1 77.1094 35.425 77.5844 36H72.8094L72.5844 34.8ZM72.4094 30.425C71.5344 30.6 71.1594 30.675 70.6344 30.75C69.3594 30.975 68.9344 31.325 68.9344 32.125C68.9344 32.825 69.5344 33.4 70.2594 33.4C71.0344 33.4 71.7844 33 72.1594 32.425C72.3344 32.1 72.4094 31.7 72.4094 31.25V30.425ZM78.4109 23.9H82.7609V25.25C84.1109 23.9 84.8859 23.575 86.4359 23.575C89.7359 23.575 91.8109 26.075 91.8109 30.075C91.8109 33.975 89.6359 36.55 86.4609 36.55C85.0359 36.55 84.3359 36.25 83.1359 35.125V40.225H78.4109V23.9ZM85.1609 27.125C83.8609 27.125 83.0859 28.175 83.0859 29.975C83.0859 31.85 83.7609 32.8 85.0859 32.8C86.3859 32.8 87.0359 31.85 87.0359 29.95C87.0359 28.075 86.4109 27.125 85.1609 27.125ZM96.4131 23.975L98.4381 31.725L100.363 23.975H104.938L101.038 36C99.9881 39.25 98.8381 40.25 96.0631 40.25C95.5631 40.25 94.8381 40.25 94.1631 40.175L92.9881 40.05V36.825H94.2631C95.0881 36.825 95.6881 36.5 95.6881 36.075C95.6881 35.8 95.6131 35.525 95.3381 34.825C95.2631 34.625 95.2381 34.5 95.2131 34.375L91.6131 23.975H96.4131Z" fill="#237F8A"/>
</svg>
