<svg width="194" height="53" viewBox="0 0 194 53" fill="none" xmlns="http://www.w3.org/2000/svg">
<circle cx="26.5" cy="26.5" r="25.2955" fill="white" stroke="#237F8A" stroke-width="2.40909"/>
<path d="M22.4943 10.5065C22.053 10.9689 21.6017 11.4349 21.1873 11.915C20.866 12.2877 20.4823 12.6433 20.111 12.9714C19.0309 14.3177 17.155 14.8066 17.2665 16.6101C17.378 18.4136 17.2104 20.5587 17.2665 22.4203C17.3226 24.282 17.2281 26.3613 17.2665 28.2306C17.3049 30.0998 17.2196 32.2085 17.2665 34.0408C17.3134 35.873 16.7076 37.6484 18.7272 38.7946C19.0416 38.973 19.303 39.1925 19.496 39.4402C19.8865 39.9425 20.4416 40.253 20.8798 40.7313C21.1427 40.9755 21.4695 41.1879 21.7255 41.4356C22.3905 42.0782 23.0447 42.7655 23.7243 43.3723C23.9304 43.556 24.161 43.7485 24.3394 43.9592C24.9244 44.6512 25.7024 45.275 26.3382 45.9547C26.7664 46.4118 27.2777 46.7781 27.7413 47.2311C28.2041 47.6842 29.1881 48.132 29.3365 47.3632C29.4849 46.5944 28.9575 46.1231 28.7983 45.4851C28.6392 44.8472 28.2633 44.38 28.0234 43.7879C27.7843 43.1951 27.3669 42.708 27.1016 42.144C26.8356 41.5806 26.4997 41.0946 26.1791 40.5594C25.8577 40.0247 25.551 39.5112 25.2558 38.9754C24.9613 38.4389 24.5615 37.9448 24.3394 37.3861C23.6551 36.244 24.1556 34.8689 24.0318 33.5713C23.9081 32.2736 24.1249 30.7782 24.0318 29.463C24.1303 29.4472 24.241 29.5082 24.2625 29.5804C24.9513 30.0382 25.1889 30.9091 25.8177 31.445C26.4466 31.9808 26.7672 32.7537 27.3438 33.3318C27.9204 33.9093 28.3409 34.5872 28.9329 35.1705C29.5249 35.7545 29.8631 36.4676 30.4705 37.0486C31.077 37.6302 31.2962 38.3544 32.1272 38.8357C32.959 39.3169 34.3383 39.483 35.3269 39.2007C36.3164 38.919 36.8929 38.4278 37.3834 37.7188C37.8747 37.0099 37.5925 35.9599 37.0052 35.3466C36.4186 34.7327 36.0627 34.0631 35.4807 33.4586C34.8987 32.8547 34.4982 32.2003 33.9316 31.5893C33.365 30.9784 32.9121 30.3422 32.3924 29.7125C31.8735 29.0821 31.3423 28.4905 30.8164 27.8637C30.2906 27.2375 29.4587 26.636 30.1999 26.0139C30.941 25.3918 31.1831 24.8031 31.7736 24.1634C32.3632 23.5231 32.773 22.9227 33.315 22.2883C33.8562 21.6533 34.3144 21.0429 34.8779 20.4296C35.4415 19.8163 35.8705 19.1807 36.4155 18.5515C36.9598 17.9218 37.6179 17.2246 37.6394 16.434C37.661 15.6435 37.1597 14.8905 36.3386 14.3752C35.5183 13.8599 34.1791 13.7396 33.1566 13.9509C32.1341 14.1628 31.5522 14.7508 31.0509 15.3953C30.5497 16.0402 30.0146 16.64 29.5095 17.2704C29.0044 17.9007 28.4324 18.4934 27.9465 19.1291C27.4607 19.7647 26.8948 20.3762 26.4089 21.0071C25.9223 21.6374 25.3088 22.2044 24.8006 22.8312C24.5715 23.1135 24.324 23.3999 24.1856 23.7115C23.8712 23.1487 24.0772 22.3135 24.0318 21.5987C23.9865 20.8839 24.0626 20.0299 24.0318 19.3098C24.0011 18.5897 24.0695 17.7176 24.0318 17.0209C23.9942 16.3243 24.1433 15.6177 23.576 15.0801C23.0094 14.5425 23.2861 14.0742 23.8012 13.5583C23.9381 13.3875 24.0157 13.2331 24.1856 13.0888C24.2248 13.0553 24.3094 13.0001 24.3394 12.9714C25.0743 11.9666 25.9146 11.1702 26.7764 10.1954C27.6375 9.21999 28.4001 8.48989 29.2404 7.43995C30.0799 6.38941 29.6702 4.44974 29.644 3.229C27.3323 5.70158 24.8437 8.04562 22.4943 10.5065Z" fill="#237F8A"/>
<path d="M73.15 38H67.27L61.9 30.41L61.3 31.13V38H56.8V17H61.3V24.14L67.27 17H73.15L64.84 26.9L73.15 38ZM89.342 28.415V38H84.842V29.675C84.842 29.205 84.727 28.78 84.497 28.4C84.267 28.01 83.962 27.705 83.582 27.485C83.202 27.255 82.777 27.14 82.307 27.14C81.837 27.14 81.407 27.255 81.017 27.485C80.637 27.705 80.332 28.01 80.102 28.4C79.882 28.78 79.772 29.205 79.772 29.675V38H75.272L75.257 15.5H79.757L79.772 23.945C80.272 23.515 80.842 23.18 81.482 22.94C82.122 22.7 82.797 22.58 83.507 22.58C84.587 22.58 85.567 22.845 86.447 23.375C87.327 23.895 88.027 24.595 88.547 25.475C89.077 26.355 89.342 27.335 89.342 28.415ZM102.814 23H107.314V38H102.799L102.589 36.65C102.219 37.17 101.749 37.59 101.179 37.91C100.619 38.23 99.9641 38.39 99.2141 38.39C98.0941 38.39 97.0441 38.18 96.0641 37.76C95.0941 37.34 94.2391 36.76 93.4991 36.02C92.7591 35.27 92.1791 34.41 91.7591 33.44C91.3491 32.46 91.1441 31.41 91.1441 30.29C91.1441 29.22 91.3391 28.22 91.7291 27.29C92.1191 26.36 92.6641 25.545 93.3641 24.845C94.0741 24.135 94.8891 23.58 95.8091 23.18C96.7391 22.78 97.7341 22.58 98.7941 22.58C99.6541 22.58 100.434 22.76 101.134 23.12C101.844 23.47 102.474 23.91 103.024 24.44L102.814 23ZM99.0941 34.07C99.7141 34.07 100.279 33.91 100.789 33.59C101.299 33.27 101.704 32.84 102.004 32.3C102.304 31.76 102.454 31.16 102.454 30.5C102.454 29.84 102.304 29.24 102.004 28.7C101.704 28.16 101.299 27.73 100.789 27.41C100.279 27.09 99.7141 26.93 99.0941 26.93C98.4741 26.93 97.9091 27.09 97.3991 27.41C96.8991 27.73 96.4991 28.16 96.1991 28.7C95.9091 29.24 95.7641 29.84 95.7641 30.5C95.7641 31.16 95.9141 31.76 96.2141 32.3C96.5141 32.84 96.9141 33.27 97.4141 33.59C97.9241 33.91 98.4841 34.07 99.0941 34.07ZM118.575 27.5H116.025V38H111.525V27.5H109.575V23H111.525V18.29H116.025V23H118.575V27.5ZM121.297 38L121.282 23H125.782L125.797 23.945C126.297 23.515 126.867 23.18 127.507 22.94C128.147 22.7 128.822 22.58 129.532 22.58C130.072 22.58 130.622 22.66 131.182 22.82L129.412 27.38C129.062 27.22 128.702 27.14 128.332 27.14C127.862 27.14 127.432 27.255 127.042 27.485C126.662 27.705 126.357 28.01 126.127 28.4C125.907 28.78 125.797 29.205 125.797 29.675V38H121.297ZM132.679 23H137.179V38H132.679V23ZM134.959 21.44C134.309 21.44 133.764 21.225 133.324 20.795C132.884 20.365 132.664 19.83 132.664 19.19C132.664 18.56 132.884 18.03 133.324 17.6C133.764 17.16 134.304 16.94 134.944 16.94C135.574 16.94 136.104 17.16 136.534 17.6C136.974 18.03 137.194 18.56 137.194 19.19C137.194 19.83 136.979 20.365 136.549 20.795C136.129 21.225 135.599 21.44 134.959 21.44Z" fill="#20717C"/>
<path d="M147.43 38.39C146.04 38.39 144.785 38.055 143.665 37.385C142.555 36.705 141.675 35.81 141.025 34.7C140.375 33.58 140.05 32.36 140.05 31.04H144.55C144.55 31.57 144.68 32.05 144.94 32.48C145.2 32.91 145.545 33.255 145.975 33.515C146.415 33.765 146.9 33.89 147.43 33.89C147.95 33.89 148.425 33.765 148.855 33.515C149.285 33.255 149.63 32.91 149.89 32.48C150.15 32.05 150.28 31.57 150.28 31.04C150.28 30.51 150.175 30.025 149.965 29.585C149.765 29.135 149.395 28.775 148.855 28.505C148.325 28.235 147.56 28.1 146.56 28.1H141.01L143.35 17H153.94V21.5H147.01L146.56 23.6L147.52 23.63C148.94 23.69 150.195 24.055 151.285 24.725C152.375 25.395 153.23 26.28 153.85 27.38C154.47 28.48 154.78 29.7 154.78 31.04C154.78 32.04 154.59 32.985 154.21 33.875C153.83 34.765 153.305 35.55 152.635 36.23C151.965 36.9 151.185 37.43 150.295 37.82C149.405 38.2 148.45 38.39 147.43 38.39ZM166.069 38.39C164.679 38.39 163.424 38.055 162.304 37.385C161.194 36.705 160.314 35.81 159.664 34.7C159.014 33.58 158.689 32.36 158.689 31.04H163.189C163.189 31.57 163.319 32.05 163.579 32.48C163.839 32.91 164.184 33.255 164.614 33.515C165.054 33.765 165.539 33.89 166.069 33.89C166.589 33.89 167.064 33.765 167.494 33.515C167.924 33.255 168.269 32.91 168.529 32.48C168.789 32.05 168.919 31.57 168.919 31.04C168.919 30.51 168.814 30.025 168.604 29.585C168.404 29.135 168.034 28.775 167.494 28.505C166.964 28.235 166.199 28.1 165.199 28.1H159.649L161.989 17H172.579V21.5H165.649L165.199 23.6L166.159 23.63C167.579 23.69 168.834 24.055 169.924 24.725C171.014 25.395 171.869 26.28 172.489 27.38C173.109 28.48 173.419 29.7 173.419 31.04C173.419 32.04 173.229 32.985 172.849 33.875C172.469 34.765 171.944 35.55 171.274 36.23C170.604 36.9 169.824 37.43 168.934 37.82C168.044 38.2 167.089 38.39 166.069 38.39ZM184.707 38.39C183.317 38.39 182.062 38.055 180.942 37.385C179.832 36.705 178.952 35.81 178.302 34.7C177.652 33.58 177.327 32.36 177.327 31.04H181.827C181.827 31.57 181.957 32.05 182.217 32.48C182.477 32.91 182.822 33.255 183.252 33.515C183.692 33.765 184.177 33.89 184.707 33.89C185.227 33.89 185.702 33.765 186.132 33.515C186.562 33.255 186.907 32.91 187.167 32.48C187.427 32.05 187.557 31.57 187.557 31.04C187.557 30.51 187.452 30.025 187.242 29.585C187.042 29.135 186.672 28.775 186.132 28.505C185.602 28.235 184.837 28.1 183.837 28.1H178.287L180.627 17H191.217V21.5H184.287L183.837 23.6L184.797 23.63C186.217 23.69 187.472 24.055 188.562 24.725C189.652 25.395 190.507 26.28 191.127 27.38C191.747 28.48 192.057 29.7 192.057 31.04C192.057 32.04 191.867 32.985 191.487 33.875C191.107 34.765 190.582 35.55 189.912 36.23C189.242 36.9 188.462 37.43 187.572 37.82C186.682 38.2 185.727 38.39 184.707 38.39Z" fill="#20717C"/>
</svg>
