<svg width="124" height="34" viewBox="0 0 124 34" fill="none" xmlns="http://www.w3.org/2000/svg">
<circle cx="16.6036" cy="16.6036" r="15.8489" fill="white" stroke="white" stroke-width="1.50942"/>
<path d="M14.0938 6.58314C13.8173 6.8729 13.5345 7.16487 13.2749 7.46566C13.0736 7.69916 12.8332 7.922 12.6006 8.12756C11.9238 8.9711 10.7485 9.27741 10.8183 10.4074C10.8882 11.5374 10.7831 12.8814 10.8183 14.0478C10.8535 15.2142 10.7942 16.517 10.8183 17.6882C10.8424 18.8594 10.7889 20.1806 10.8183 21.3286C10.8477 22.4766 10.4681 23.589 11.7335 24.3071C11.9305 24.4189 12.0943 24.5565 12.2152 24.7116C12.4599 25.0264 12.8077 25.2209 13.0822 25.5206C13.247 25.6736 13.4517 25.8067 13.6121 25.9619C14.0288 26.3645 14.4387 26.7951 14.8645 27.1753C14.9936 27.2904 15.1381 27.4111 15.2498 27.5431C15.6164 27.9766 16.1039 28.3675 16.5022 28.7933C16.7705 29.0798 17.0908 29.3092 17.3813 29.5931C17.6713 29.877 18.2878 30.1575 18.3808 29.6758C18.4738 29.1941 18.1433 28.8988 18.0436 28.4991C17.9439 28.0994 17.7084 27.8067 17.5581 27.4357C17.4083 27.0643 17.1467 26.7591 16.9805 26.4057C16.8139 26.0527 16.6034 25.7482 16.4025 25.4129C16.2012 25.0779 16.009 24.7561 15.824 24.4204C15.6395 24.0843 15.389 23.7747 15.2498 23.4246C14.8211 22.709 15.1347 21.8475 15.0572 21.0345C14.9796 20.2214 15.1154 19.2845 15.0572 18.4604C15.1188 18.4505 15.1882 18.4887 15.2017 18.534C15.6333 18.8208 15.7821 19.3665 16.1761 19.7022C16.5701 20.0379 16.771 20.5222 17.1323 20.8844C17.4935 21.2463 17.757 21.671 18.1279 22.0365C18.4988 22.4024 18.7108 22.8491 19.0913 23.2132C19.4713 23.5776 19.6086 24.0314 20.1293 24.3329C20.6505 24.6344 21.5147 24.7385 22.1341 24.5616C22.754 24.3851 23.1153 24.0773 23.4226 23.6331C23.7304 23.1889 23.5537 22.5311 23.1856 22.1468C22.8181 21.7622 22.5951 21.3426 22.2305 20.9639C21.8658 20.5855 21.6149 20.1755 21.2599 19.7927C20.9048 19.4099 20.6211 19.0113 20.2955 18.6167C19.9704 18.2218 19.6375 17.8511 19.3081 17.4584C18.9786 17.066 18.4574 16.6891 18.9217 16.2994C19.3861 15.9096 19.5378 15.5408 19.9078 15.1399C20.2772 14.7388 20.5339 14.3626 20.8735 13.9651C21.2126 13.5672 21.4997 13.1848 21.8528 12.8005C22.2059 12.4163 22.4747 12.018 22.8162 11.6238C23.1572 11.2293 23.5695 10.7924 23.583 10.2971C23.5965 9.80178 23.2825 9.32999 22.768 9.00714C22.2541 8.68428 21.415 8.6089 20.7743 8.74128C20.1337 8.87402 19.769 9.24248 19.455 9.64623C19.1409 10.0504 18.8057 10.4262 18.4892 10.8211C18.1727 11.216 17.8143 11.5874 17.5099 11.9857C17.2055 12.3839 16.851 12.7671 16.5465 13.1624C16.2416 13.5573 15.8572 13.9125 15.5388 14.3052C15.3953 14.4821 15.2402 14.6615 15.1535 14.8568C14.9565 14.5042 15.0856 13.9809 15.0572 13.533C15.0287 13.0851 15.0764 12.5501 15.0572 12.0989C15.0379 11.6477 15.0808 11.1013 15.0572 10.6648C15.0336 10.2283 15.127 9.7856 14.7715 9.44877C14.4165 9.11194 14.5899 8.8185 14.9127 8.49527C14.9984 8.38827 15.047 8.29156 15.1535 8.2011C15.1781 8.18014 15.231 8.14557 15.2498 8.12756C15.7103 7.49802 16.2368 6.99903 16.7768 6.38825C17.3163 5.7771 17.7941 5.31966 18.3206 4.66181C18.8466 4.0036 18.5899 2.78829 18.5735 2.02344C17.125 3.57263 15.5658 5.0413 14.0938 6.58314Z" fill="#237F8A"/>
<path d="M47.3719 23.6387H43.6878L40.3232 18.8831L39.9473 19.3343V23.6387H37.1278V10.4811H39.9473V14.9547L43.6878 10.4811H47.3719L42.1653 16.6839L47.3719 23.6387ZM57.5171 17.6332V23.6387H54.6976V18.4226C54.6976 18.1281 54.6255 17.8619 54.4814 17.6238C54.3373 17.3794 54.1462 17.1883 53.9081 17.0505C53.6701 16.9064 53.4038 16.8343 53.1093 16.8343C52.8148 16.8343 52.5454 16.9064 52.301 17.0505C52.0629 17.1883 51.8718 17.3794 51.7277 17.6238C51.5899 17.8619 51.521 18.1281 51.521 18.4226V23.6387H48.7015L48.6921 9.54124H51.5116L51.521 14.8325C51.8343 14.5631 52.1914 14.3532 52.5924 14.2028C52.9934 14.0524 53.4163 13.9772 53.8612 13.9772C54.5378 13.9772 55.1519 14.1433 55.7032 14.4753C56.2546 14.8011 56.6932 15.2397 57.019 15.7911C57.3511 16.3425 57.5171 16.9565 57.5171 17.6332ZM65.9581 14.2404H68.7776V23.6387H65.9487L65.8171 22.7928C65.5853 23.1186 65.2908 23.3818 64.9337 23.5823C64.5828 23.7828 64.1724 23.883 63.7025 23.883C63.0007 23.883 62.3429 23.7515 61.7288 23.4883C61.1211 23.2251 60.5854 22.8617 60.1217 22.3981C59.6581 21.9282 59.2947 21.3893 59.0315 20.7816C58.7746 20.1676 58.6462 19.5097 58.6462 18.808C58.6462 18.1375 58.7684 17.511 59.0127 16.9283C59.2571 16.3456 59.5986 15.835 60.0372 15.3964C60.482 14.9515 60.9926 14.6038 61.5691 14.3532C62.1518 14.1025 62.7752 13.9772 63.4393 13.9772C63.9782 13.9772 64.4669 14.09 64.9055 14.3156C65.3503 14.5349 65.745 14.8105 66.0896 15.1426L65.9581 14.2404ZM63.6273 21.1763C64.0158 21.1763 64.3698 21.0761 64.6893 20.8756C65.0088 20.6751 65.2626 20.4057 65.4506 20.0673C65.6385 19.729 65.7325 19.3531 65.7325 18.9395C65.7325 18.526 65.6385 18.1501 65.4506 17.8117C65.2626 17.4734 65.0088 17.204 64.6893 17.0035C64.3698 16.803 64.0158 16.7027 63.6273 16.7027C63.2388 16.7027 62.8848 16.803 62.5653 17.0035C62.252 17.204 62.0014 17.4734 61.8134 17.8117C61.6317 18.1501 61.5409 18.526 61.5409 18.9395C61.5409 19.3531 61.6349 19.729 61.8228 20.0673C62.0108 20.4057 62.2614 20.6751 62.5747 20.8756C62.8942 21.0761 63.2451 21.1763 63.6273 21.1763ZM75.8333 17.0599H74.2356V23.6387H71.4161V17.0599H70.1944V14.2404H71.4161V11.2893H74.2356V14.2404H75.8333V17.0599ZM77.5388 23.6387L77.5294 14.2404H80.3489L80.3583 14.8325C80.6716 14.5631 81.0287 14.3532 81.4297 14.2028C81.8307 14.0524 82.2536 13.9772 82.6985 13.9772C83.0368 13.9772 83.3814 14.0274 83.7323 14.1276L82.6233 16.9847C82.404 16.8844 82.1784 16.8343 81.9466 16.8343C81.6521 16.8343 81.3827 16.9064 81.1384 17.0505C80.9003 17.1883 80.7092 17.3794 80.5651 17.6238C80.4272 17.8619 80.3583 18.1281 80.3583 18.4226V23.6387H77.5388ZM84.6699 14.2404H87.4894V23.6387H84.6699V14.2404ZM86.0985 13.263C85.6912 13.263 85.3497 13.1283 85.074 12.8588C84.7984 12.5894 84.6605 12.2542 84.6605 11.8532C84.6605 11.4585 84.7984 11.1264 85.074 10.857C85.3497 10.5813 85.6881 10.4435 86.0891 10.4435C86.4838 10.4435 86.8159 10.5813 87.0853 10.857C87.361 11.1264 87.4988 11.4585 87.4988 11.8532C87.4988 12.2542 87.3641 12.5894 87.0947 12.8588C86.8315 13.1283 86.4995 13.263 86.0985 13.263Z" fill="white"/>
<path d="M93.9123 23.883C93.0414 23.883 92.2551 23.6731 91.5534 23.2533C90.8579 22.8273 90.3065 22.2665 89.8993 21.571C89.492 20.8693 89.2884 20.1049 89.2884 19.2779H92.1079C92.1079 19.6099 92.1893 19.9107 92.3522 20.1801C92.5151 20.4495 92.7313 20.6657 93.0007 20.8286C93.2764 20.9852 93.5803 21.0635 93.9123 21.0635C94.2381 21.0635 94.5358 20.9852 94.8052 20.8286C95.0746 20.6657 95.2907 20.4495 95.4537 20.1801C95.6166 19.9107 95.698 19.6099 95.698 19.2779C95.698 18.9458 95.6322 18.6419 95.5006 18.3662C95.3753 18.0843 95.1435 17.8587 94.8052 17.6896C94.4731 17.5204 93.9938 17.4358 93.3672 17.4358H89.8899L91.356 10.4811H97.9912V13.3006H93.6492L93.3672 14.6163L93.9687 14.6351C94.8584 14.6727 95.6447 14.9014 96.3277 15.3212C97.0106 15.741 97.5463 16.2955 97.9348 16.9847C98.3233 17.6739 98.5175 18.4383 98.5175 19.2779C98.5175 19.9044 98.3984 20.4965 98.1604 21.0541C97.9223 21.6118 97.5933 22.1036 97.1735 22.5297C96.7537 22.9495 96.265 23.2815 95.7074 23.5259C95.1498 23.764 94.5514 23.883 93.9123 23.883ZM105.59 23.883C104.72 23.883 103.933 23.6731 103.231 23.2533C102.536 22.8273 101.985 22.2665 101.577 21.571C101.17 20.8693 100.966 20.1049 100.966 19.2779H103.786C103.786 19.6099 103.867 19.9107 104.03 20.1801C104.193 20.4495 104.409 20.6657 104.679 20.8286C104.954 20.9852 105.258 21.0635 105.59 21.0635C105.916 21.0635 106.214 20.9852 106.483 20.8286C106.753 20.6657 106.969 20.4495 107.132 20.1801C107.295 19.9107 107.376 19.6099 107.376 19.2779C107.376 18.9458 107.31 18.6419 107.179 18.3662C107.053 18.0843 106.822 17.8587 106.483 17.6896C106.151 17.5204 105.672 17.4358 105.045 17.4358H101.568L103.034 10.4811H109.669V13.3006H105.327L105.045 14.6163L105.647 14.6351C106.537 14.6727 107.323 14.9014 108.006 15.3212C108.689 15.741 109.224 16.2955 109.613 16.9847C110.001 17.6739 110.196 18.4383 110.196 19.2779C110.196 19.9044 110.077 20.4965 109.838 21.0541C109.6 21.6118 109.271 22.1036 108.852 22.5297C108.432 22.9495 107.943 23.2815 107.386 23.5259C106.828 23.764 106.23 23.883 105.59 23.883ZM117.269 23.883C116.398 23.883 115.611 23.6731 114.91 23.2533C114.214 22.8273 113.663 22.2665 113.255 21.571C112.848 20.8693 112.645 20.1049 112.645 19.2779H115.464C115.464 19.6099 115.546 19.9107 115.708 20.1801C115.871 20.4495 116.087 20.6657 116.357 20.8286C116.633 20.9852 116.936 21.0635 117.269 21.0635C117.594 21.0635 117.892 20.9852 118.161 20.8286C118.431 20.6657 118.647 20.4495 118.81 20.1801C118.973 19.9107 119.054 19.6099 119.054 19.2779C119.054 18.9458 118.988 18.6419 118.857 18.3662C118.732 18.0843 118.5 17.8587 118.161 17.6896C117.829 17.5204 117.35 17.4358 116.723 17.4358H113.246L114.712 10.4811H121.347V13.3006H117.005L116.723 14.6163L117.325 14.6351C118.215 14.6727 119.001 14.9014 119.684 15.3212C120.367 15.741 120.903 16.2955 121.291 16.9847C121.679 17.6739 121.874 18.4383 121.874 19.2779C121.874 19.9044 121.755 20.4965 121.517 21.0541C121.278 21.6118 120.95 22.1036 120.53 22.5297C120.11 22.9495 119.621 23.2815 119.064 23.5259C118.506 23.764 117.908 23.883 117.269 23.883Z" fill="white"/>
</svg>
